<svg width="17" height="17" viewBox="0 0 17 17" fill="none" xmlns="http://www.w3.org/2000/svg">
<path fill-rule="evenodd" clip-rule="evenodd" d="M5.96059 0C4.2273 0 2.8333 1.45421 2.8333 3.23567C2.8333 4.31871 3.34896 5.28063 4.14159 5.86783C3.73308 6.17389 3.40195 6.5714 3.17476 7.0285C2.94756 7.4856 2.83062 7.98956 2.8333 8.5C2.8333 9.58375 3.34896 10.545 4.14159 11.1322C3.73308 11.4382 3.40195 11.8357 3.17476 12.2928C2.94756 12.7499 2.83062 13.2539 2.8333 13.7643C2.8333 15.5458 4.2273 17 5.96059 17C7.69317 17 9.08788 15.5458 9.08788 13.7643V11.0287C9.63566 11.4855 10.3261 11.7359 11.0393 11.7364C12.7726 11.7357 14.1666 10.2815 14.1666 8.5C14.1695 7.98953 14.0526 7.48551 13.8254 7.02839C13.5982 6.57126 13.267 6.17378 12.8583 5.86783C13.2668 5.56177 13.598 5.16426 13.8252 4.70717C14.0524 4.25007 14.1693 3.7461 14.1666 3.23567C14.1666 1.45421 12.7726 0 11.0393 0H5.96059ZM4.00842 3.23567C4.00842 2.10871 4.88817 1.20629 5.96059 1.20629H7.91205V5.26504H5.96059C4.88817 5.26504 4.00842 4.36192 4.00842 3.23567ZM11.0393 5.26433H9.08788V1.20558H11.0393C12.1125 1.20558 12.9915 2.10871 12.9915 3.23567C12.9915 4.36192 12.1125 5.26433 11.0393 5.26433ZM4.00913 8.5C4.00913 7.37375 4.88888 6.47062 5.9613 6.47062H7.91275V10.5294H5.96059C4.88746 10.5294 4.00842 9.62625 4.00842 8.5H4.00913ZM9.08788 8.5C9.08788 7.37375 9.96763 6.47062 11.04 6.47062C12.1132 6.47062 12.9922 7.37304 12.9922 8.5C12.9922 9.62625 12.1132 10.5294 11.04 10.5294C9.96763 10.5294 9.08859 9.62696 9.08859 8.5H9.08788ZM4.00913 13.7643C4.00913 12.6381 4.88888 11.7357 5.9613 11.7357H7.91275V13.7643C7.91275 14.8913 7.03442 15.7937 5.9613 15.7937C4.88888 15.7937 4.00913 14.8913 4.00913 13.7643Z" fill="#F5F5F5"/>
</svg>
