<svg width="26" height="24" viewBox="0 0 26 24" fill="none" xmlns="http://www.w3.org/2000/svg">
<path d="M20.5416 7.14866C19.7292 6.86884 19.012 6.36572 18.4725 5.69699C17.8778 4.95191 17.1205 4.35272 16.2587 3.94527C15.3968 3.53781 14.4532 3.33288 13.5 3.34616C12.2177 3.25535 10.9483 3.65084 9.94447 4.45387C8.94067 5.25691 8.27617 6.40856 8.08329 7.67949C8.46319 7.04384 9.03495 6.5451 9.7163 6.25504C10.3977 5.96497 11.1535 5.89855 11.875 6.06532C12.686 6.35328 13.402 6.85933 13.9441 7.52782C14.5421 8.26695 15.3008 8.85995 16.1624 9.26169C17.0241 9.66342 17.9661 9.86332 18.9166 9.84616C20.1989 9.93697 21.4683 9.54148 22.4721 8.73844C23.4759 7.93541 24.1404 6.78375 24.3333 5.51282C23.9603 6.15608 23.3904 6.66235 22.7076 6.95691C22.0249 7.25146 21.2655 7.31869 20.5416 7.14866ZM6.45829 12.5437C7.27073 12.8235 7.98787 13.3266 8.52746 13.9953C9.12216 14.7404 9.8794 15.3396 10.7412 15.747C11.6031 16.1545 12.5467 16.3594 13.5 16.3462C14.7822 16.437 16.0517 16.0415 17.0555 15.2384C18.0592 14.4354 18.7237 13.2838 18.9166 12.0128C18.5367 12.6485 17.965 13.1472 17.2836 13.4373C16.6023 13.7273 15.8465 13.7938 15.125 13.627C14.3139 13.339 13.5979 12.833 13.0558 12.1645C12.4562 11.4272 11.6972 10.8355 10.8359 10.4339C9.97465 10.0324 9.03348 9.8314 8.08329 9.84616C6.80102 9.75535 5.53159 10.1508 4.5278 10.9539C3.52401 11.7569 2.8595 12.9086 2.66663 14.1795C3.03962 13.5362 3.60957 13.03 4.29231 12.7354C4.97506 12.4409 5.73442 12.3736 6.45829 12.5437Z" fill="#F5F5F5"/>
</svg>
